<?xml version="1.0" encoding="UTF-8"?>
<svg width="52px" height="51px" viewBox="0 0 52 51" version="1.1" xmlns="http://www.w3.org/2000/svg" xmlns:xlink="http://www.w3.org/1999/xlink">
    <!-- Generator: Sketch 49 (51002) - http://www.bohemiancoding.com/sketch -->
    <title>ico_klienci_indywidualni</title>
    <desc>Created with Sketch.</desc>
    <defs>
        <polygon id="path-1" points="0.748480104 0.31093125 23.0745645 0.31093125 23.0745645 23.3935209 0.748480104 23.3935209"></polygon>
    </defs>
    <g id="Symbols" stroke="none" stroke-width="1" fill="none" fill-rule="evenodd">
        <g id="panels/sekcja_zasiegu_działania" transform="translate(-100.000000, -140.000000)">
            <g id="ZASIEG_DZIALANIA">
                <g id="BOX_1" transform="translate(44.000000, 71.000000)">
                    <g id="assets/ico/white" transform="translate(33.000000, 41.000000)">
                        <g id="Page-1" transform="translate(23.683333, 27.466667)">
                            <g id="Group-3" transform="translate(11.280208, 0.493756)">
                                <mask id="mask-2" fill="white">
                                    <use xlink:href="#path-1"></use>
                                </mask>
                                <g id="Clip-2"></g>
                                <path d="M11.9099145,2.85178031 C16.733352,2.85178031 20.6564145,6.89050687 20.6564145,11.8552678 C20.6564145,16.8200287 16.733352,20.8553756 11.9099145,20.8553756 C7.0896926,20.8553756 3.1666301,16.8200287 3.1666301,11.8552678 C3.1666301,6.89050687 7.0896926,2.85178031 11.9099145,2.85178031 M11.9099145,23.3935209 C18.0678364,23.3935209 23.0745645,18.2192194 23.0745645,11.8552678 C23.0745645,5.48793656 18.0678364,0.310255312 11.9099145,0.310255312 C5.75520823,0.310255312 0.748480104,5.48793656 0.748480104,11.8552678 C0.748480104,18.2192194 5.75520823,23.3935209 11.9099145,23.3935209" id="Fill-1" fill="#FFFFFF" mask="url(#mask-2)"></path>
                            </g>
                            <path d="M23.1901228,28.9108447 C26.4475509,28.9108447 29.4670228,29.9450291 32.0170134,31.6754291 C32.4093197,30.9420369 32.8723697,30.2424416 33.4479666,29.6036806 C30.4960228,27.5691087 26.9749134,26.3726994 23.1901228,26.3726994 C13.3149384,26.3726994 5.22442594,34.4501525 4.53949781,44.6297712 L7.02517594,44.6297712 C7.71331969,35.8561025 14.6558541,28.9108447 23.1901228,28.9108447" id="Fill-4" fill="#FFFFFF"></path>
                            <path d="M5.68168781,47.2912752 C5.86176281,47.2912752 6.02575969,47.2439595 6.18010969,47.1729861 L5.18326594,47.1729861 C5.33761594,47.2439595 5.50161281,47.2912752 5.68168781,47.2912752" id="Fill-6" fill="#FFFFFF"></path>
                            <path d="M23.0457413,18.1742534 C24.6021038,18.1742534 26.1616819,17.5523909 27.3482475,16.3086659 C27.7630631,15.8760659 27.7630631,15.1730909 27.3482475,14.7337316 C26.9334319,14.3011316 26.2613663,14.3011316 25.8497663,14.7337316 C24.3030506,16.3559816 21.7916475,16.3559816 20.2417162,14.7337316 C19.8301162,14.3011316 19.1580506,14.3011316 18.743235,14.7337316 C18.331635,15.1730909 18.331635,15.8760659 18.743235,16.3086659 C19.9298006,17.5523909 21.4893788,18.1742534 23.0457413,18.1742534" id="Fill-8" fill="#FFFFFF"></path>
                            <g id="Group-12" transform="translate(0.000000, 44.429694)" fill="#FFFFFF">
                                <path d="M7.02581906,0.201429375 L4.54014094,0.201429375 L1.25055656,0.201429375 C0.559197188,0.201429375 -0.0003215625,0.772596563 -0.0003215625,1.47219188 C-0.0003215625,2.17178719 0.559197188,2.74295438 1.25055656,2.74295438 L5.18326594,2.74295438 L6.18010969,2.74295438 L36.3716128,2.74295438 L33.9534628,0.201429375 L7.02581906,0.201429375 Z" id="Fill-10"></path>
                            </g>
                            <g id="Group-17" transform="translate(30.573958, 25.868235)" fill="#FFFFFF">
                                <path d="M4.8490451,16.531618 C1.92604198,13.4594821 1.92604198,8.46092427 4.8490451,5.39554771 C6.2639201,3.9118649 8.14827635,3.09060083 10.1516107,3.09060083 C12.1581607,3.09060083 14.042517,3.9118649 15.457392,5.3989274 C16.872267,6.87923052 17.6472326,8.85634771 17.6472326,10.9652727 C17.6472326,13.070818 16.872267,15.0479352 15.457392,16.5282383 L10.1516107,22.0945836 L4.8490451,16.531618 Z M17.2549264,3.50968208 C13.4669201,-0.471589792 6.8427326,-0.471589792 3.05151073,3.5063024 C2.9839826,3.57727583 2.93896385,3.66176802 2.87465135,3.73612115 C2.29905448,4.3715024 1.83600448,5.07109771 1.4404826,5.80786958 C-0.710770521,9.82631802 -0.199486146,15.0039993 3.05151073,18.4208633 L3.37628885,18.7622118 L5.79765448,21.3037368 L9.25445135,24.9301415 C9.50205448,25.1903774 9.8268326,25.3221852 10.1516107,25.3221852 C10.4796045,25.3221852 10.8043826,25.1903774 11.0519857,24.9301415 L17.2549264,18.4208633 C19.1489295,16.4302274 20.1940076,13.7805524 20.1940076,10.9652727 C20.1940076,8.14323365 19.1489295,5.49355865 17.2549264,3.50968208 Z" id="Fill-15"></path>
                            </g>
                            <path d="M40.7284631,34.6603691 C39.8473819,34.6603691 39.1335131,35.4106597 39.1335131,36.3333144 C39.1335131,37.2593487 39.8473819,38.0062597 40.7284631,38.0062597 C41.6063287,38.0062597 42.3201975,37.2593487 42.3201975,36.3333144 C42.3201975,35.4106597 41.6063287,34.6603691 40.7284631,34.6603691" id="Fill-18" fill="#FFFFFF"></path>
                        </g>
                    </g>
                </g>
            </g>
        </g>
    </g>
</svg>